<svg width="197" height="192" viewBox="0 0 197 192" fill="none" xmlns="http://www.w3.org/2000/svg">
<path d="M187.672 67.8769C160.023 63.4668 103.805 61.5671 100.119 89.249C95.5105 123.851 92.5781 178.469 129.443 177.451C166.307 176.434 227.887 176.773 227.887 146.58C227.887 116.388 170.915 73.9832 161.699 110.282C152.483 146.58 292.4 130.297 280.252 102.819C268.103 75.3401 227.469 10.8846 187.672 24.4542C147.875 38.0238 106.402 118.763 129.443 132.672C152.483 146.58 240.455 67.877 214.063 56.6821C187.672 45.4872 85.8755 -0.988671 75.4026 40.3986C64.9298 81.7858 19.9798 184.636 64.9298 177.451C100.89 171.703 122.922 154.476 129.443 146.58C105.704 112.996 53.9542 54.5109 36.8625 89.249C15.4979 132.672 92.9971 213.411 140.334 201.198C187.672 188.986 204.428 171.006 187.672 158.793C170.915 146.58 131.118 212.393 172.591 212.393C214.063 212.393 275.644 169.414 266.427 146.58C257.211 123.747 263.495 89.249 238.779 89.249C219.006 89.249 196.469 75.001 187.672 67.8769ZM187.672 67.8769C204.566 80.9805 231.778 109.117 205.473 116.833C172.591 126.479 143.821 114.842 140.334 94.9339C136.847 75.0255 202.116 34.9705 214.063 40.3986C226.011 45.8266 246.22 40.82 249.199 67.8769C252.177 94.9339 249.671 116.833 238.779 116.833C227.887 116.833 273.712 189.08 273.712 195.139C273.712 201.198 205.473 210.25 205.473 184.521C205.473 158.793 210.773 146.58 195.535 146.58C180.297 146.58 170.265 134.368 161.699 146.58C153.133 158.793 151.226 203.103 140.334 212.393C129.443 221.684 94.8877 204.676 100.119 184.521C105.349 164.367 140.334 165.94 140.334 152.668C140.334 139.396 125.32 94.9339 112.72 94.9339C100.119 94.9339 129.443 51.7991 129.443 49.1447M129.443 49.1447C129.443 46.4903 180.55 0.701075 140.334 2.0283C100.119 3.35552 88.2193 45.4872 94.1689 56.6821C100.119 67.8769 53.0961 45.4872 36.8625 56.6821C20.629 67.8769 15.3289 94.934 18.6415 116.833C21.2916 134.352 57.5864 124.133 75.4026 116.833C82.6133 107.492 94.8715 86.7167 86.2187 78.3435C75.4026 67.8769 55.0836 20.7284 36.8625 30.5635C18.6415 40.3986 -14.155 138.069 11.3538 152.668C36.8625 167.267 91.5189 169.258 86.2187 152.668C80.9185 136.078 18.6415 125.247 18.6415 140.723C18.6415 153.104 30.7889 182.159 36.8625 195.139C50.6645 198.749 79.8585 191.308 86.2187 132.672C92.5789 74.0353 106.536 52.5552 112.72 49.1447H129.443Z" stroke="black" stroke-width="4"/>
</svg>
