<svg width="189" height="146" viewBox="0 0 189 146" fill="none" xmlns="http://www.w3.org/2000/svg">
<path d="M36.249 38.6828C27.1743 29.1832 35.1687 11.8753 40.5703 8.99662C45.4317 5.75803 52.9939 5.21852 58.3955 7.91697C62.979 10.2067 64.7186 27.3483 62.1767 32.7458C59.2958 38.863 45.3237 48.1824 36.249 38.6828Z" fill="black"/>
<path d="M117.813 32.2058C117.813 25.189 123.755 14.394 129.157 12.235C136.179 5.75798 146.695 9.7471 149.683 12.235C152.924 14.9337 154.544 29.5071 144.821 40.302C135.098 51.0969 117.813 47.4913 117.813 32.2058Z" fill="black"/>
<path d="M6 84.5616C8.70081 93.9172 19.396 115.219 40.5703 125.583C67.0381 138.537 124.295 147.173 148.062 130.98C167.076 118.026 184.073 103.093 189.114 94.8171M40.5703 8.99662C35.1687 11.8753 27.1743 29.1832 36.249 38.6828C45.3237 48.1824 59.2958 38.863 62.1767 32.7458C64.7186 27.3483 62.979 10.2067 58.3955 7.91697C52.9939 5.21852 45.4317 5.75803 40.5703 8.99662ZM129.157 12.235C123.755 14.394 117.813 25.189 117.813 32.2058C117.813 47.4913 135.098 51.0969 144.821 40.302C154.544 29.5071 152.924 14.9337 149.683 12.235C146.695 9.7471 136.179 5.75798 129.157 12.235Z" stroke="black" stroke-width="12"/>
</svg>
