<svg width="201" height="213" viewBox="0 0 201 213" fill="none" xmlns="http://www.w3.org/2000/svg">
<path d="M239.587 37.0612C180.785 -9.94009 60.6805 -3.04656 31.2799 53.9817C-11.5033 136.968 -8.75507 220.821 108.848 237.115C226.45 253.409 244.916 197.02 250.846 159.891C256.638 123.628 251.472 89.076 226.45 71.5288C201.428 53.9817 142.627 26.4076 108.848 40.1946C75.0681 53.9817 58.019 92.7488 50.6718 115.397C42.5397 140.464 58.9742 179.477 73.1914 189.972C85.0768 198.746 107.147 208.135 128.24 208.773C161.511 209.779 198.301 189.972 204.556 184.959C218.797 173.545 235.208 141.091 214.565 115.397C193.922 89.7027 168.9 71.5288 138.874 71.5288C108.848 71.5288 92.4258 101.533 88.2045 107.877C83.2001 115.397 67.5615 141.717 88.2045 159.891C108.848 178.065 136.997 183.705 159.517 176.185C182.036 168.665 195.173 147.984 186.415 131.691C177.658 115.397 153.887 96.5962 138.874 98.4763C123.861 100.356 108.848 115.397 108.848 131.691C108.848 147.984 126.171 155.558 137.623 152.371C148.883 149.238 155.764 116.023 143.253 149.238" stroke="black" stroke-width="11"/>
</svg>
