<svg width="287" height="223" viewBox="0 0 287 223" fill="none" xmlns="http://www.w3.org/2000/svg">
<path d="M245.526 119.417L209.855 -14.7346L204.046 130.692L94.835 31.0139L174.362 162.5L0.56978 160.436L159.68 201.616L55.0345 279.124L184.115 232.638L166.154 348.456L233.846 242.108L295.491 343.991L276.011 229.515L414.251 212.139L287.929 186.491L391.154 102.371L278.97 142.678L318.848 8.77156L245.526 119.417Z" fill="black"/>
<path d="M210.188 165.867L204.046 130.692M204.046 130.692L209.855 -14.7346L245.526 119.417L318.848 8.77156L278.97 142.678L391.154 102.371L287.929 186.491L414.251 212.139L276.011 229.515L295.491 343.991L233.846 242.108L166.154 348.456L184.115 232.638L55.0345 279.124L159.68 201.616L0.56978 160.436L174.362 162.5L94.835 31.0139L204.046 130.692Z" stroke="black"/>
</svg>
